<svg class="fill-current w-full h-full" xmlns="http://www.w3.org/2000/svg" viewBox="0 0 110.621 64">
  <g>
    <path d="M10.228,27.464c-.732-1.9-1.172-2.881-3.344-3.052-.293.977-.562,1.855-.757,2.588-.171.708.1,1.171,1.074,1.171.317,0,.586,0,.928-.024-.244.659-.684,1.977-.806,2.514-.854-.073-6.42-.049-7.323,0a20.187,20.187,0,0,0,.83-2.514c.22.024.561.024.806.024A1.272,1.272,0,0,0,3.027,27.2c.83-2.1,2.1-6.151,2.636-8.153.244-.928-.1-1.245-.879-1.245a5.64,5.64,0,0,0-.756.025,21.073,21.073,0,0,0,.805-2.49c.488.024,1.538.049,3.125.049,2.05-.025,4.2-.074,4.955-.074,3.564,0,5.639.977,5.639,3.93,0,2.783-2.2,5.151-6.518,5.151H11.6a4.7,4.7,0,0,1,1.1,1.66c.513,1.1.928,2.123,2.173,2.123A2.755,2.755,0,0,0,16.941,27a10.716,10.716,0,0,0,.976,2.367,5.752,5.752,0,0,1-3.808,1.538C11.644,30.905,10.936,29.172,10.228,27.464Zm5.15-7.885c0-1.391-.781-1.977-3.246-1.977-.806,0-2,.024-2.978.049-.635,1.733-1.148,3.3-1.611,4.662,1.22.1,2.221.146,3.783.146C13.792,22.459,15.378,21.507,15.378,19.579Z" />
    <path d="M33.054,26.438a14.8,14.8,0,0,0,1.513,1.953,10.772,10.772,0,0,1-7.3,2.514c-4.32,0-6.395-1.953-6.395-5,0-3.979,3.246-7.591,8.958-7.591,3.393,0,4.931,1.513,4.931,3.491,0,3-3.759,4.491-10.545,4.393.2,1.562,1.44,2.222,3.637,2.222A7.612,7.612,0,0,0,33.054,26.438Zm-8.69-1.952c5.15-.269,7.274-.855,7.274-2.3,0-.8-.708-1.269-2.124-1.269A5.047,5.047,0,0,0,24.364,24.486Z" />
    <path d="M43.066,21.092c.025-.2.049-.366.074-.512.512-4.492,2.587-6.518,6.1-6.518,2.051,0,3.491.879,3.491,2.417a2.105,2.105,0,0,1-2.124,2.173c-1.489,0-2.124-.806-2.124-1.929v-.1c-1.44.391-2.245,1.831-2.441,4.467,2.734,0,5.4-.048,6.249-.1a19.505,19.505,0,0,0-.585,2.734c-.806-.049-3.272-.073-5.883-.073-.2,2.026-.464,4.54-.586,5.467-.586,4.761-2.368,6.493-5.639,6.493-1.831,0-3.075-.83-3.075-2.465a1.893,1.893,0,0,1,2.05-2,1.84,1.84,0,0,1,1.953,1.733,3.881,3.881,0,0,0,1.708-3.174c.171-1.538.391-4.027.586-6.053-2.05,0-3.783.024-4.369.073A18.972,18.972,0,0,0,39.039,21C39.576,21.044,41.162,21.068,43.066,21.092Z" />
    <path d="M38.138,42.4c0,3.637-3.125,7.542-8.788,7.542-3.93,0-5.834-2.025-5.834-5,0-3.661,3.125-7.567,8.788-7.542C36.234,37.366,38.138,39.343,38.138,42.4ZM26.885,44.689c0,1.733,1.1,2.612,2.954,2.612a4.945,4.945,0,0,0,4.93-4.662c.025-1.782-1.122-2.636-2.978-2.612A4.874,4.874,0,0,0,26.885,44.689Z" />
    <path d="M40.068,49.693A15.189,15.189,0,0,0,41,47.008c.39,0,1.2.074,2.246.074.683,0,1.025-.2,1.391-1.1a17.581,17.581,0,0,0,1.416-5.077c0-.611-.244-.977-.806-.977a4.073,4.073,0,0,0-2.563,1.392,10.249,10.249,0,0,0-1.294-1.978,7.451,7.451,0,0,1,4.614-2,2.529,2.529,0,0,1,2.856,2.734,13.153,13.153,0,0,1-.342,2.368h.22c1.684-3.54,3.417-5.127,5.59-5.127,2.075,0,2.954,1.563,2.954,3.442,0,2.026-.855,3.808-2.564,3.808a1.6,1.6,0,0,1-1.733-1.708,1.89,1.89,0,0,1,2.027-1.953,2.262,2.262,0,0,1,.414.024,1.994,1.994,0,0,0-1.684-.732c-2.148,0-4.223,2.2-5.492,5.614-.244.684-.147,1.27.732,1.27,1.294,0,2.539-.049,3.051-.074a15.444,15.444,0,0,0-.952,2.685C49.588,49.62,41.435,49.62,40.068,49.693Z" />
    <path d="M61.794,39.539c-.366,0-.756.268-1.318.781A5.5,5.5,0,0,0,59.4,38.733a4.993,4.993,0,0,1,3.2-1.367c1.367,0,2.148.757,2.148,2.344a7.973,7.973,0,0,1-.122,1.171h.219c1.148-2.587,2.149-3.539,3.516-3.539.952,0,1.684.683,1.684,2.294a6.49,6.49,0,0,1-.147,1.245h.2c1.123-2.563,2.148-3.539,3.612-3.539,1.2,0,1.953.781,1.953,2.294,0,2.295-2.758,6.054-2.758,7.47a.462.462,0,0,0,.512.512,1.494,1.494,0,0,0,1.074-.634,6.532,6.532,0,0,0,1.124,1.562,4.239,4.239,0,0,1-3,1.391c-1.44,0-2.246-.708-2.246-2.1,0-2.539,2.539-5.541,2.539-7.225,0-.489-.269-.684-.61-.684-1.1,0-2.393,2.2-4.345,7.4-.293.8-.611,1.635-.928,2.514a20.859,20.859,0,0,0-2.709-.269c2.782-6.615,3.173-8.128,3.173-9.032,0-.415-.147-.61-.488-.61-.708,0-1.9,1.025-4.711,8.422-.171.488-.342.976-.538,1.489a22.589,22.589,0,0,0-2.782-.293c1.806-3.93,3.271-8.153,3.271-9.349C62.234,39.783,62.112,39.539,61.794,39.539Z" />
    <path d="M93.115,37.708c-1.88,3.906-3.027,7.274-3.027,8.568,0,.537.22.781.732.781.561,0,1.1-.342,1.806-1.123A8.951,8.951,0,0,0,93.8,48.18a6.822,6.822,0,0,1-4.2,1.66,2.345,2.345,0,0,1-2.637-2.514,7.921,7.921,0,0,1,.171-1.514h-.22c-1.586,2.905-3.539,4.125-5.565,4.125-2.124,0-3.417-1.464-3.417-3.856,0-4.1,3.075-8.739,7.1-8.739a3.856,3.856,0,0,1,3.808,2.343l.048-.122c.221-.683.489-1.416.757-2.148A28.1,28.1,0,0,0,93.115,37.708Zm-4.98,3.661a2.967,2.967,0,0,0-2.49-1.318c-2.392,0-4.369,3.052-4.369,5.322,0,1.123.512,1.684,1.489,1.684C84.449,47.057,86.256,45.544,88.135,41.369Z" />
    <path d="M104.323,37.684c2.808,0,5.444-.049,6.3-.1a28.847,28.847,0,0,0-.879,2.807c-.854-.024-3.71-.073-6.664-.073-1.293,2.856-1.83,4.491-1.83,5.59,0,.83.391,1.22,1.172,1.22,1.367,0,2.587-.976,3.93-2.807a16.385,16.385,0,0,0,2.075,1.9c-2.369,2.783-4.809,3.735-7.079,3.71-2.32-.024-3.516-1-3.516-3.124a18.774,18.774,0,0,1,1.831-6.493c-1.9.024-3.49.049-4.076.1a17.281,17.281,0,0,0,.805-2.832c.586.049,2.368.073,4.492.1.415-.9.854-1.807,1.294-2.685a20.711,20.711,0,0,0,3.637-.318C105.275,35.78,104.763,36.78,104.323,37.684Z" />
  </g>
</svg>
